<svg width="42" height="46" viewBox="0 0 42 46" fill="none" xmlns="http://www.w3.org/2000/svg">
<path d="M36.41 0H5.58997C4.32327 0.0683632 3.13366 0.629894 2.27579 1.56439C1.41792 2.49888 0.959976 3.73208 0.999975 5V36C0.987639 36.6053 1.09807 37.2069 1.3246 37.7683C1.55113 38.3298 1.88907 38.8395 2.31802 39.2668C2.74698 39.6941 3.25805 40.03 3.8204 40.2543C4.38274 40.4786 4.98471 40.5867 5.58997 40.572H31.672L30.453 36.317L33.4 39.054L36.18 41.63L41 46V5C41.04 3.73208 40.582 2.49888 39.7242 1.56439C38.8663 0.629894 37.6767 0.0683632 36.41 0Z" fill="#282828"/>
<path d="M31.2581 13.1328C29.4071 11.679 27.1507 10.8352 24.8001 10.7178L24.4781 11.0858C26.5705 11.6437 28.5208 12.6393 30.2001 14.0068C28.0584 12.8267 25.7066 12.0769 23.2771 11.7998C21.7321 11.6295 20.1723 11.645 18.6311 11.8458C16.69 12.0271 14.7931 12.5325 13.0191 13.3408C12.1681 13.7318 11.6621 14.0078 11.6621 14.0078C13.4325 12.5712 15.4979 11.5425 17.7111 10.9948L17.4811 10.7188C15.1286 10.8352 12.8704 11.679 11.0181 13.1338C8.91318 17.2951 7.78071 21.88 7.70605 26.5428C7.70605 26.5428 9.63805 29.8778 14.7211 30.0428C14.7211 30.0428 15.5721 29.0078 16.2621 28.1338C14.645 27.726 13.2213 26.766 12.2371 25.4198C14.0675 26.5805 16.1048 27.377 18.2371 27.7658C20.204 28.1436 22.2242 28.1514 24.1941 27.7888C26.3203 27.4006 28.3511 26.6039 30.1741 25.4428C29.1528 26.8177 27.6782 27.7872 26.0111 28.1798C26.7011 29.0538 27.5291 30.0428 27.5291 30.0428C32.6121 29.8818 34.5671 26.5428 34.5671 26.5428C34.4935 21.8799 33.362 17.2946 31.2581 13.1328ZM16.8371 24.3998C16.197 24.346 15.6004 24.0537 15.1657 23.5809C14.7309 23.108 14.4896 22.4891 14.4896 21.8468C14.4896 21.2044 14.7309 20.5855 15.1657 20.1127C15.6004 19.6398 16.197 19.3476 16.8371 19.2938C17.4771 19.3476 18.0737 19.6398 18.5084 20.1127C18.9432 20.5855 19.1845 21.2044 19.1845 21.8468C19.1845 22.4891 18.9432 23.108 18.5084 23.5809C18.0737 24.0537 17.4771 24.346 16.8371 24.3998ZM25.2371 24.3998C24.723 24.4433 24.2077 24.3305 23.7588 24.0764C23.3098 23.8222 22.9481 23.4383 22.7209 22.9751C22.4937 22.5119 22.4116 21.9909 22.4854 21.4803C22.5592 20.9697 22.7855 20.4933 23.1346 20.1134C23.4837 19.7335 23.9393 19.4678 24.4419 19.3512C24.9445 19.2346 25.4705 19.2724 25.9512 19.4597C26.432 19.647 26.8449 19.9751 27.1361 20.401C27.4272 20.827 27.583 21.3308 27.5831 21.8468C27.6067 22.4962 27.3729 23.1288 26.9327 23.6069C26.4924 24.0849 25.8813 24.3699 25.2321 24.3998H25.2371Z" fill="white"/>
</svg>
