<svg width="377" height="87" viewBox="0 0 377 87" fill="none" xmlns="http://www.w3.org/2000/svg">
<path d="M0 6.29492H10.5117V56.7423H0V6.29492Z" fill="black"/>
<path d="M35.1085 31.1017V56.7841H24.5968V12.924L21.6826 7.12876V6.29492H34.033L49.6098 34.8123V6.29492H60.1216V56.7424H49.6098L35.1085 31.1017Z" fill="black"/>
<path d="M96.5484 20.7206C94.4321 19.0946 90.5466 17.3018 87.5284 17.3018C84.5102 17.3018 83.4694 18.8027 83.4694 20.5121C83.4694 21.6795 84.4408 22.9719 86.1754 24.1393L90.9282 27.3913C96.479 31.2687 98.7687 35.9382 98.7687 41.7751C98.7687 50.0718 94.3281 57.5764 84.1286 57.5764C80.1043 57.5764 76.1494 56.5341 73.374 55.2V41.4832C75.6637 43.6512 79.9655 45.7775 83.6776 45.7775C86.1407 45.7775 87.5631 44.6519 87.5631 42.5256C87.5631 41.3582 86.7652 40.2325 84.7877 38.8983L79.792 35.4796C73.9291 31.4771 72.1945 26.9327 72.1945 20.929C72.1945 13.5912 75.9759 5.50293 87.5631 5.50293C90.4772 5.50293 93.8077 6.25339 96.5137 7.58754V20.7206H96.5484Z" fill="black"/>
<path d="M188.83 56.7839L180.92 28.8085V56.7839H170.408V6.33643H183.383L193.374 40.6908L203.366 6.33643H216.271V56.7839H205.759V28.7251L197.85 56.7839H188.83Z" fill="black"/>
<path d="M240.59 31.1017V56.7841H230.079V12.924L227.164 7.12876V6.29492H239.515L255.092 34.7706V6.29492H265.603V56.7424H255.092L240.59 31.1017Z" fill="black"/>
<path d="M279.342 6.29492H289.853V56.7423H279.342V6.29492Z" fill="black"/>
<path d="M326.766 47.6534H312.75L310.218 56.7839H298.492L313.93 6.33643H325.656L341.094 56.7839H329.368L326.766 47.6534ZM316.219 35.4792H323.366L319.793 22.8048L316.219 35.4792Z" fill="black"/>
<path d="M376.271 55.4924C373.6 56.8266 370.582 57.577 367.425 57.577C355.144 57.577 345.812 46.2785 345.812 31.5195C345.812 16.7605 355.144 5.46191 367.425 5.46191C370.582 5.46191 373.6 6.21237 376.271 7.54652V22.0137C374.225 19.7206 371.137 18.0946 367.425 18.0946C361.25 18.0946 356.636 24.1817 356.636 31.5195C356.636 38.9407 361.25 44.9443 367.425 44.9443C371.137 44.9443 374.329 43.3183 376.271 41.1503V55.4924Z" fill="black"/>
<path d="M314.936 74.337C313.999 73.7533 312.646 73.3364 311.154 73.3364C309.107 73.3364 307.546 75.1708 307.546 77.7974C307.546 80.2573 309.003 82.2585 311.015 82.2585C312.889 82.2585 313.93 80.7576 313.93 79.5068V79.34H310.981V75.5461H317.538C317.676 76.2131 317.746 77.2137 317.746 78.131C317.746 82.5086 315.491 86.4694 310.911 86.4694C306.852 86.4694 303.938 82.7171 303.938 77.7974C303.938 72.8778 306.956 69.1255 311.154 69.1255C312.542 69.1255 313.999 69.3756 314.936 69.7926V74.337Z" fill="black"/>
<path d="M328.674 83.1754H323.99L323.158 86.2189H319.238L324.372 69.417H328.292L333.427 86.2189H329.506L328.674 83.1754ZM325.135 79.0895H327.529L326.349 74.8786L325.135 79.0895Z" fill="black"/>
<path d="M342.481 86.2189L339.845 76.8799V86.2189H336.341V69.417H340.677L344.008 80.8823L347.338 69.417H351.64V86.2189H348.136V76.8799L345.5 86.2189H342.481Z" fill="black"/>
<path d="M356.219 86.2189V69.417H364.407V73.4611H359.723V75.7125H363.99V79.7566H359.723V82.1747H364.407V86.2189H356.219Z" fill="black"/>
<path d="M376.271 74.1702C375.578 73.6282 374.259 73.0445 373.253 73.0445C372.247 73.0445 371.9 73.5448 371.9 74.1285C371.9 74.5038 372.212 74.9624 372.802 75.3376L374.398 76.4216C376.237 77.714 377 79.2566 377 81.2162C377 83.9678 375.508 86.4694 372.108 86.4694C370.755 86.4694 369.437 86.1358 368.535 85.6772V81.0911C369.298 81.7999 370.721 82.5086 371.97 82.5086C372.802 82.5086 373.253 82.1334 373.253 81.4246C373.253 81.0494 372.976 80.6742 372.317 80.2156L370.651 79.0899C368.709 77.7557 368.119 76.2548 368.119 74.2536C368.119 71.7938 369.368 69.1255 373.253 69.1255C374.225 69.1255 375.335 69.3756 376.237 69.8343V74.1702H376.271Z" fill="black"/>
<path d="M128.431 13.3414C126.557 12.716 124.58 12.4658 122.498 12.716C114.935 13.6332 108.934 21.0961 108.413 30.1849C107.789 41.2333 115.039 50.4473 124.129 50.4473C125.62 50.4473 127.078 50.1971 128.431 49.7385C128.743 49.6134 128.777 49.1131 128.465 48.9464C122.845 46.0696 118.89 39.3572 118.89 31.5191C118.89 23.681 122.845 16.9686 128.465 14.0918C128.777 13.9667 128.743 13.4247 128.431 13.3414Z" fill="#78B1BB"/>
<path d="M150.356 31.5192C150.356 46.0698 142.169 58.3272 130.998 61.9544C130.651 62.0795 130.685 62.7049 131.032 62.7883C132.628 63.0384 134.259 63.1218 135.924 63.0384C149.315 62.2463 160.139 49.1967 160.798 33.1035C161.562 14.9675 149.558 0 134.606 0C133.391 0 132.212 0.0833842 131.067 0.291845C130.685 0.333537 130.651 1.00061 131.032 1.12569C142.169 4.7529 150.356 16.9687 150.356 31.5192Z" fill="#78B1BB"/>
</svg>
