<svg width="30" height="46" viewBox="0 0 30 46" fill="none" xmlns="http://www.w3.org/2000/svg">
<path d="M19 46H11C4.9 46 0 41.1 0 35V11C0 4.9 4.9 0 11 0H19C25.1 0 30 4.9 30 11V35C30 41.1 25.1 46 19 46ZM11 2C6 2 2 6 2 11V35C2 40 6 44 11 44H19C24 44 28 40 28 35V11C28 6 24 2 19 2H11Z" fill="white"/>
<path d="M15 21.6885C13.9 21.6885 13 20.7885 13 19.6885V13.6885C13 12.5885 13.9 11.6885 15 11.6885C16.1 11.6885 17 12.5885 17 13.6885V19.6885C17 20.7885 16.1 21.6885 15 21.6885Z" fill="white"/>
</svg>
