<svg width="503" height="105" viewBox="0 0 503 105" fill="none" xmlns="http://www.w3.org/2000/svg">
<path d="M491.428 88.4668H492.409V82.0488H494.731V81.2178H489.104V82.0488H491.428V88.4668Z" fill="white"/>
<path d="M496.614 82.5768L498.567 88.4668H499.538L501.491 82.5768V88.4668H502.301V81.2178H501.12L499.086 87.4088L496.985 81.2178H495.633V88.4668H496.614V82.5768Z" fill="white"/>
<path d="M335.362 71.101V41.126C335.362 35.011 338.216 30.632 344.303 30.632H381.85C382.08 30.632 382.301 30.404 382.301 30.178V24.214C382.301 24.162 382.286 24.111 382.266 24.062H336.357C326.406 25.327 321.545 32.262 321.545 41.126V71.1C321.545 77.215 318.611 81.595 312.605 81.595H272.953C272.728 81.595 272.502 81.746 272.502 82.048V88.013C272.502 88.26 272.654 88.449 272.832 88.512H317.851C329.585 88.204 335.362 80.713 335.362 71.101Z" fill="white"/>
<path d="M181.105 88.513H194.288C194.466 88.45 194.618 88.261 194.618 88.014V68.911C194.618 62.796 198.072 58.567 203.104 58.567H257.405C269.647 58.567 275.581 51.017 275.581 41.126C275.581 32.262 270.724 25.327 260.768 24.062H180.861C180.838 24.112 180.799 24.151 180.799 24.214V30.178C180.799 30.48 180.949 30.632 181.249 30.632H252.823C258.907 30.632 261.761 35.011 261.761 41.126C261.761 47.242 258.907 51.621 252.823 51.621H196.195C187.408 51.621 180.799 59.097 180.799 68.911V88.014C180.798 88.261 180.904 88.449 181.105 88.513Z" fill="white"/>
<path d="M382.081 81.596H454.181C454.402 81.596 454.552 81.747 454.552 81.898V88.014C454.552 88.316 454.782 88.467 455.003 88.467H467.999C468.229 88.467 468.448 88.316 468.448 88.014V82.049C468.448 81.822 468.678 81.596 468.899 81.596H481.815C482.116 81.596 482.266 81.369 482.266 81.144V75.103C482.266 74.876 482.116 74.65 481.815 74.65H468.899C468.678 74.65 468.448 74.423 468.448 74.197V30.632C468.448 27.077 467.127 24.813 464.906 24.062H461.146C459.974 24.363 458.7 24.902 457.334 25.723L379.678 73.668C376.674 75.555 375.621 77.668 376.373 79.254C376.973 80.614 378.696 81.596 382.081 81.596ZM393.344 73.593L453.501 36.37C453.88 36.068 454.632 36.144 454.632 36.974V74.197C454.632 74.424 454.402 74.65 454.181 74.65H393.716C393.195 74.65 392.964 74.5 392.894 74.348C392.813 74.046 392.963 73.819 393.344 73.593Z" fill="white"/>
<path d="M50.3727 0C56.2307 1.092 61.9887 2.652 67.7187 4.278C70.9967 5.23 74.2657 6.215 77.5137 7.264C82.6157 8.889 87.6957 10.729 92.3167 13.473C94.3867 14.73 96.3747 16.15 98.0737 17.882C99.9147 19.681 101.422 21.815 102.528 24.137C104.543 28.345 105.233 33.046 105.437 37.668C105.533 40.684 105.527 43.726 104.964 46.703C104.496 49.29 103.664 51.841 102.28 54.088C101.058 56.073 99.3587 57.789 97.2967 58.895C95.3187 59.961 93.0537 60.469 90.8107 60.424C87.4087 60.46 84.1077 59.375 81.0547 57.954C80.9997 47.801 81.0467 37.646 81.0307 27.494C81.0087 25.657 81.1337 23.801 80.7637 21.989C80.5037 20.585 79.9307 19.17 78.8287 18.217C78.0977 17.558 77.1507 17.186 76.1987 16.985C75.2357 16.802 74.2087 17.211 73.6127 17.984C72.6217 19.222 72.3617 20.866 72.3167 22.407C72.3087 49.588 72.3267 76.77 72.3087 103.949C64.9967 101.632 57.6837 99.313 50.3737 96.989C50.3657 64.659 50.3687 32.33 50.3727 0Z" fill="white"/>
<path d="M17.5067 68.7832C27.0397 65.4082 36.5627 62.0012 46.0997 58.6372C46.1147 62.3802 46.0997 66.1242 46.1057 69.8702C46.0997 70.3782 46.1327 70.8882 46.0687 71.3932C38.5307 74.0652 31.0077 76.7842 23.4767 79.4732C22.4327 79.8672 21.3617 80.3142 20.5567 81.1112C20.1817 81.4852 19.8767 82.0372 20.0817 82.5732C20.3397 83.2042 20.9837 83.5472 21.5777 83.8072C23.2297 84.4792 25.0357 84.5742 26.7957 84.6552C28.7577 84.6242 30.7277 84.4772 32.6497 84.0532C33.9487 83.7982 35.1987 83.3602 36.4367 82.8952C39.6547 81.7302 42.8727 80.5582 46.0957 79.4052C46.1197 82.5712 46.0997 85.7392 46.1057 88.9082C46.0957 89.5412 46.1347 90.1782 46.0717 90.8092C42.1137 91.5202 38.1087 92.0032 34.0857 92.0662C25.9847 92.2492 17.8647 90.9952 10.1697 88.4632C7.6457 87.7322 5.1377 86.7592 3.0307 85.1562C1.8707 84.2582 0.832704 83.1292 0.304704 81.7402C-0.137296 80.5642 -0.105296 79.2052 0.445704 78.0702C0.976704 76.9382 1.9047 76.0432 2.9267 75.3482C5.2917 73.7152 7.8997 72.4702 10.5427 71.3592C12.8197 70.3872 15.1817 69.6312 17.5067 68.7832Z" fill="white"/>
<path d="M94.2097 64.5198C96.3717 64.2698 98.5477 64.2108 100.721 64.1328C107.872 64.1598 115.059 65.0498 121.899 67.1948C123.241 67.6028 124.541 68.1308 125.878 68.5568C128.261 69.4278 130.647 70.4838 132.555 72.1968C133.702 73.2428 134.69 74.6518 134.704 76.2608C134.772 77.5698 134.179 78.8258 133.33 79.7918C131.714 81.6038 129.578 82.8488 127.433 83.9348C125.15 85.0988 122.696 85.8498 120.302 86.7358C105.69 91.9828 91.0767 97.2278 76.4667 102.481C76.4647 98.3878 76.4707 94.2958 76.4647 90.2048C76.4867 90.0418 76.3967 89.7568 76.6277 89.7138C87.7457 85.7578 98.8607 81.7908 109.977 77.8248C111.48 77.2628 113.099 76.8558 114.375 75.8358C114.897 75.4258 115.408 74.7738 115.152 74.0708C114.885 73.4558 114.247 73.1148 113.66 72.8608C111.996 72.2018 110.184 72.0738 108.414 72.0248C105.643 72.0438 102.847 72.3858 100.212 73.2738C92.2927 76.0488 84.3877 78.8578 76.4667 81.6238C76.4677 77.2288 76.4647 72.8368 76.4687 68.4428C82.1997 66.4318 88.1837 65.2128 94.2097 64.5198Z" fill="white"/>
<path d="M126.693 94.796C128.422 94.58 130.228 95.3551 131.264 96.7571C132.395 98.2031 132.602 100.289 131.803 101.941C130.997 103.655 129.153 104.856 127.244 104.793C125.487 104.832 123.785 103.809 122.92 102.294C122.138 100.959 122.045 99.2501 122.65 97.8301C123.33 96.1911 124.932 94.994 126.693 94.796ZM126.317 95.7191C125.349 95.9391 124.47 96.5261 123.892 97.3331C123.197 98.2821 122.934 99.538 123.198 100.687C123.42 101.754 124.095 102.707 125.006 103.298C126.409 104.22 128.376 104.169 129.718 103.156C131.103 102.178 131.761 100.299 131.285 98.672C130.991 97.572 130.205 96.6361 129.215 96.0911C128.335 95.6231 127.285 95.4881 126.317 95.7191Z" fill="white"/>
<path d="M125.119 96.8961C126.02 96.8911 126.924 96.8951 127.826 96.8931C128.336 96.9001 128.898 97.0191 129.259 97.4101C129.623 97.8211 129.652 98.4181 129.552 98.9331C129.496 99.2731 129.196 99.4741 128.979 99.7121C129.168 99.8791 129.409 100.036 129.454 100.308C129.558 100.828 129.448 101.376 129.615 101.886C129.72 102.066 129.827 102.248 129.835 102.464C129.461 102.474 129.088 102.467 128.714 102.473C128.462 101.88 128.65 101.213 128.493 100.602C128.431 100.353 128.173 100.198 127.927 100.206C127.317 100.18 126.705 100.198 126.097 100.197C126.088 100.955 126.119 101.716 126.079 102.473C125.761 102.468 125.442 102.468 125.124 102.474C125.108 100.612 125.119 98.7551 125.119 96.8961ZM126.097 97.7801C126.098 98.2931 126.098 98.8061 126.097 99.3211C126.642 99.3241 127.188 99.3281 127.735 99.3231C128.006 99.3211 128.321 99.2701 128.497 99.0401C128.682 98.7471 128.678 98.3571 128.511 98.0591C128.371 97.8241 128.074 97.8011 127.83 97.7861C127.252 97.7691 126.674 97.7791 126.097 97.7801Z" fill="white"/>
</svg>
