<svg width="48" height="40" viewBox="0 0 48 40" fill="none" xmlns="http://www.w3.org/2000/svg">
<path d="M48 5.1131C46.2027 5.90961 44.2962 6.43241 42.344 6.6641C44.4005 5.43362 45.9395 3.49732 46.674 1.2161C44.7411 2.36336 42.6263 3.17167 40.421 3.6061C39.4997 2.62291 38.3861 1.83952 37.1495 1.30454C35.9128 0.769554 34.5794 0.494385 33.232 0.496102C27.794 0.496102 23.384 4.9051 23.384 10.3431C23.384 11.1151 23.471 11.8671 23.639 12.5871C15.455 12.1771 8.199 8.2571 3.342 2.2981C2.46586 3.80082 2.00544 5.50963 2.008 7.2491C2.00669 8.87054 2.40591 10.4672 3.17019 11.8972C3.93448 13.3272 5.04016 14.5463 6.389 15.4461C4.82535 15.397 3.29614 14.9746 1.929 14.2141L1.928 14.3381C1.928 19.1091 5.322 23.0901 9.828 23.9941C8.37756 24.3885 6.85618 24.4463 5.38 24.1631C6.00911 26.1199 7.23414 27.8311 8.88372 29.0573C10.5333 30.2836 12.5249 30.9635 14.58 31.0021C11.0919 33.7399 6.78424 35.2248 2.35 35.2181C1.554 35.2181 0.77 35.1711 0 35.0801C4.50288 37.9736 9.74362 39.5094 15.096 39.5041C33.209 39.5041 43.115 24.4991 43.115 11.4851C43.115 11.0581 43.105 10.6341 43.086 10.2111C45.014 8.81733 46.678 7.09099 48 5.1131Z" fill="#282828"/>
</svg>
