<svg width="48" height="34" viewBox="0 0 48 34" fill="none" xmlns="http://www.w3.org/2000/svg">
<path d="M47.52 7.40312C47.52 7.40312 47.052 4.09512 45.612 2.63912C43.787 0.727117 41.742 0.717117 40.803 0.605117C34.086 0.120117 24.01 0.120117 24.01 0.120117H23.99C23.99 0.120117 13.914 0.120117 7.197 0.605117C6.259 0.717117 4.213 0.727117 2.387 2.63912C0.949 4.09512 0.48 7.40312 0.48 7.40312C0.48 7.40312 0 11.2871 0 15.1721V18.8131C0 22.6971 0.48 26.5821 0.48 26.5821C0.48 26.5821 0.948 29.8901 2.388 31.3461C4.213 33.2581 6.612 33.1981 7.68 33.3981C11.52 33.7661 24 33.8801 24 33.8801C24 33.8801 34.086 33.8651 40.803 33.3801C41.741 33.2671 43.787 33.2581 45.613 31.3461C47.052 29.8901 47.521 26.5821 47.521 26.5821C47.521 26.5821 48 22.6971 48 18.8131V15.1721C48 11.2871 47.52 7.40312 47.52 7.40312Z" fill="#282828"/>
<path d="M19.045 23.2263L19.042 9.73926L32.012 16.5063L19.045 23.2263Z" fill="white"/>
</svg>
